<?xml version="1.0"?>
<svg width="640" height="480" xmlns="http://www.w3.org/2000/svg" xmlns:svg="http://www.w3.org/2000/svg">
 <!-- Created with SVG-edit - https://github.com/SVG-Edit/svgedit-->
 <defs>
  <filter height="200%" id="svg_2_blur" width="200%" x="-50%" y="-50%">
   <feGaussianBlur in="SourceGraphic" stdDeviation="3"/>
  </filter>
  <filter height="200%" id="svg_1_blur" width="200%" x="-50%" y="-50%">
   <feGaussianBlur in="SourceGraphic" stdDeviation="3"/>
  </filter>
  <filter height="200%" id="svg_4_blur" width="200%" x="-50%" y="-50%">
   <feGaussianBlur in="SourceGraphic" stdDeviation="3"/>
  </filter>
  <filter height="200%" id="svg_6_blur" width="200%" x="-50%" y="-50%">
   <feGaussianBlur in="SourceGraphic" stdDeviation="3"/>
  </filter>
  <filter height="200%" id="svg_5_blur" width="200%" x="-50%" y="-50%">
   <feGaussianBlur in="SourceGraphic" stdDeviation="3"/>
  </filter>
  <filter height="200%" id="svg_7_blur" width="200%" x="-50%" y="-50%">
   <feGaussianBlur in="SourceGraphic" stdDeviation="3"/>
  </filter>
  <filter height="200%" id="svg_9_blur" width="200%" x="-50%" y="-50%">
   <feGaussianBlur in="SourceGraphic" stdDeviation="3"/>
  </filter>
  <filter height="200%" id="svg_8_blur" width="200%" x="-50%" y="-50%">
   <feGaussianBlur in="SourceGraphic" stdDeviation="3"/>
  </filter>
 </defs>
 <g class="layer">
  <title>Layer 1</title>
  <polygon cx="83.5" cy="105.5" fill="#00ff7f" id="svg_17" orient="point" point="5" points="528.5 135.219 550.667 198.99 618.167 200.366 564.367 241.154 583.917 305.775 528.5 267.212 473.083 305.775 492.633 241.154 438.834 200.366 506.333 198.99 528.5 135.219 550.667 198.99" r="94.280904" r2="37.712362" shape="star" stroke="#000000" stroke-width="2" strokeWidth="5" strokecolor="#000000"/>
  <rect fill="#007fff" filter="url(#svg_1_blur)" height="180" id="svg_1" stroke="#000000" stroke-width="2" width="32.999999" x="219.5" y="137.5"/>
  <rect fill="#007fff" filter="url(#svg_4_blur)" height="31" id="svg_4" stroke="#000000" stroke-dasharray="null" stroke-linecap="null" stroke-linejoin="null" stroke-width="2" width="60" x="221.5" y="211.5"/>
  <rect fill="#007fff" filter="url(#svg_5_blur)" height="187.000008" id="svg_5" stroke="#000000" stroke-dasharray="null" stroke-linecap="null" stroke-linejoin="null" stroke-width="2" width="38.000002" x="333.499998" y="131.499992"/>
  <rect fill="#007fff" filter="url(#svg_6_blur)" height="40" id="svg_6" stroke="#000000" stroke-dasharray="null" stroke-linecap="null" stroke-linejoin="null" stroke-width="2" width="108" x="335.5" y="125.5"/>
  <rect fill="#007fff" filter="url(#svg_7_blur)" height="33" id="svg_7" stroke="#000000" stroke-dasharray="null" stroke-linecap="null" stroke-linejoin="null" stroke-width="2" width="109" x="333.5" y="286.5"/>
  <rect fill="#007fff" filter="url(#svg_8_blur)" height="67" id="svg_8" stroke="#000000" stroke-dasharray="null" stroke-linecap="null" stroke-linejoin="null" stroke-width="2" width="32" x="411.5" y="249.5"/>
  <rect fill="#007fff" filter="url(#svg_9_blur)" height="27" id="svg_9" stroke="#000000" stroke-dasharray="null" stroke-linecap="null" stroke-linejoin="null" stroke-width="2" width="45" x="398.5" y="234.5"/>
  <path d="m76.5,224.5c-2.009834,-0.009003 -2.830452,0.067688 -3.833332,-0.333344c-0.767189,-0.306793 -1.221237,-0.806702 -1.676502,-1.418671c-0.892464,-1.199646 -1.137733,-1.774109 -1.458164,-2.358643c-0.342602,-0.624969 -0.687538,-1.292267 -1.032001,-1.9935c-0.354366,-0.721405 -0.703548,-1.461761 -1.032001,-2.218506c-0.652393,-1.503113 -0.93074,-2.25412 -1.198666,-2.994659c-0.265026,-0.732513 -0.510983,-1.467041 -0.748501,-2.203522c-0.238499,-0.739532 -0.46875,-1.489075 -0.703499,-2.248505c-0.48349,-1.564148 -0.739082,-2.374023 -1.001331,-3.205322c-0.269096,-0.853027 -0.544743,-1.728302 -0.816002,-2.629486c-0.278164,-0.924133 -0.557056,-1.873718 -0.816002,-2.854507c-0.537571,-2.036102 -0.769463,-3.103622 -0.995998,-4.192001c-0.229229,-1.101318 -0.437569,-2.21347 -0.6255,-3.328506c-0.186695,-1.107697 -0.354797,-2.204193 -0.490501,-3.283493c-0.260025,-2.068085 -0.335716,-3.050186 -0.401333,-3.990662c-0.062763,-0.899582 -0.103138,-1.759857 -0.128998,-2.580002c-0.02459,-0.779877 -0.035107,-1.519989 -0.039001,-2.220001c-0.007122,-1.279984 -0.004532,-1.860687 0,-2.405334c0.004265,-0.51268 0.013,-0.99762 0.039001,-1.458008c0.024906,-0.440994 0.059566,-0.867325 0.128998,-1.278c0.136963,-0.810089 0.260212,-1.209335 0.401333,-1.603989c0.286034,-0.799927 0.672729,-1.572571 0.894169,-1.944168c0.663483,-1.113403 1.194462,-1.802155 1.823166,-2.421173c0.669559,-0.659241 1.066654,-0.98877 2.543999,-1.835999c0.561966,-0.322281 1.190491,-0.606339 1.852501,-0.899994c0.691261,-0.306641 1.416992,-0.603378 2.1675,-0.900009c0.767811,-0.303467 1.55275,-0.601547 3.146667,-1.199997c0.800205,-0.300446 1.602535,-0.60141 2.413502,-0.891006c0.817039,-0.291763 1.646503,-0.575256 2.494495,-0.83699c0.861046,-0.265762 1.740059,-0.536301 3.592003,-0.938675c0.960556,-0.208694 1.953644,-0.370651 2.967003,-0.523499c1.029327,-0.155258 2.074486,-0.290359 3.128998,-0.4245c1.060158,-0.134857 2.124603,-0.253906 4.237335,-0.552002c1.04567,-0.147537 2.077621,-0.314209 3.096001,-0.481491c1.002953,-0.164749 1.986969,-0.333191 2.951996,-0.490509c0.942322,-0.153625 1.858452,-0.31459 3.618668,-0.528c0.833435,-0.101044 1.636925,-0.168594 2.405998,-0.218994c0.732315,-0.047989 1.427238,-0.076248 2.082001,-0.093002c0.612595,-0.015686 1.181335,-0.019989 2.178665,-0.021332c0.425667,-0.000565 0.805336,0 1.143005,0c0.299667,0 0.565331,0 0.800995,0c0.209671,0 1.3228,-0.099136 2.056,0.333328c0.771698,0.45517 1.124641,0.988144 1.605339,1.525345c0.887161,0.991425 1.198746,1.395935 1.899994,2.238663c0.369713,0.444305 1.134323,1.361298 1.53067,1.821335c0.792,0.919281 1.596863,1.799026 2.001831,2.228668c0.404373,0.429016 1.230743,1.278748 1.652672,1.705322c0.427391,0.432098 1.308289,1.315216 2.228165,2.231339c0.471214,0.469299 0.949455,0.942581 1.435501,1.416c0.488609,0.475922 1.473152,1.424072 2.479164,2.333328c0.496239,0.448517 0.992142,0.883926 1.495499,1.291504c0.971321,0.786484 1.440819,1.165802 2.419167,1.732498c0.895309,0.5186 1.796577,0.830139 2.67067,1.020004c0.432877,0.094025 1.330383,0.18602 2.748001,0.455994c0.511902,0.097488 1.576653,0.371445 2.127998,0.517334c1.124306,0.297516 1.687546,0.456787 2.255997,0.581345c1.653748,0.362366 2.19841,0.416306 3.268005,0.495987c0.534866,0.039841 1.624481,0.065521 2.18399,0.069336c1.163971,0.007919 2.400024,0.002792 3.040512,-0.001831c0.651505,-0.0047 1.311295,-0.006332 2.641998,-0.052658c0.665695,-0.023178 1.981979,-0.104095 2.626663,-0.164505c0.636688,-0.059662 1.886337,-0.219727 2.500671,-0.320007c0.611053,-0.099747 1.822891,-0.33075 3.020828,-0.625c0.601974,-0.147858 1.805725,-0.491028 2.41066,-0.679993c0.611435,-0.190994 1.22757,-0.393661 1.846512,-0.615005c1.916611,-0.685425 2.565125,-0.957443 3.226822,-1.223663c0.669647,-0.269424 1.342239,-0.548538 2.016006,-0.835495c0.675568,-0.28772 1.349091,-0.579758 2.016006,-0.880508c1.967239,-0.887131 2.596237,-1.195465 3.213333,-1.498657c0.604218,-0.29686 1.195786,-0.584671 2.294662,-1.200012c0.522781,-0.29274 1.495056,-0.874084 2.317337,-1.498657c0.74736,-0.567673 1.375519,-1.146027 1.883987,-1.716003c0.659988,-0.739792 1.088028,-1.476944 1.580002,-2.080826c0.689423,-0.846237 1.46019,-1.41008 1.980011,-1.8405c0.536362,-0.444122 1.546829,-1.432556 1.957321,-1.989334c0.394608,-0.535217 0.989716,-1.591064 1.143005,-2.322006c0.187073,-0.892044 0.114334,-1.87384 0.114334,-2.667328c0,-0.775513 0.001694,-1.980011 0,-2.753342c-0.002258,-1.028336 0.444672,-2.33519 -0.375168,-2.467331c-0.816666,-0.131638 -1.293579,1.767441 -1.611664,2.30867c-0.363556,0.618607 -0.764923,1.319656 -1.210495,2.099991c-0.490829,0.859619 -1.024841,1.800293 -1.606506,2.820007c-0.627625,1.100296 -2.028183,3.540756 -2.803329,4.878006c-0.81546,1.406784 -1.668488,2.868698 -2.551498,4.373993c-0.902618,1.538712 -1.821426,3.096725 -2.749512,4.662003c-0.926575,1.562729 -2.757126,4.626816 -3.648834,6.106659c-0.870987,1.44548 -1.727707,2.857925 -2.570999,4.242004c-0.829391,1.361237 -1.650162,2.701645 -2.462997,4.026001c-0.805847,1.312973 -2.408997,3.917999 -3.209,5.218002c-0.800003,1.300003 -1.599991,2.599991 -2.399994,3.899994c-0.800003,1.300003 -1.600006,2.600006 -2.400009,3.900009c-0.799988,1.299988 -2.400208,3.899872 -3.199997,5.200165c-0.800217,1.301025 -1.600891,2.60379 -2.399994,3.910492c-0.800903,1.309631 -1.601547,2.62439 -2.400009,3.946503c-0.801544,1.327209 -2.402328,4.008118 -3.199829,5.364349c-0.801163,1.362457 -1.598465,2.734039 -2.389496,4.114471c-0.792648,1.38324 -1.577972,2.772858 -2.3535,4.168518c-0.775146,1.394989 -2.293793,4.193756 -3.0355,5.595001c-0.738274,1.394745 -1.46151,2.786194 -2.175003,4.168488c-0.706497,1.368744 -1.399689,2.724152 -2.084999,4.060516c-0.67469,1.315643 -1.99334,3.872375 -2.639832,5.106659c-0.63221,1.207031 -1.255775,2.384277 -1.864502,3.535492c-0.59494,1.125122 -1.176659,2.224304 -1.738503,3.301514c-0.548775,1.052155 -1.588799,3.092865 -2.076332,4.08548c-0.47908,0.975433 -0.942429,1.945648 -1.402496,2.913025c-0.461609,0.970612 -0.924889,1.95285 -1.402504,2.948975c-0.489006,1.019897 -1.534668,3.148438 -2.10183,4.26651c-0.587402,1.15799 -1.202835,2.346924 -1.833,3.568512c-0.644508,1.24939 -1.301674,2.522461 -1.959,3.820496c-0.665382,1.313965 -1.98172,3.989258 -2.621666,5.344666c-0.637375,1.349976 -1.252373,2.691833 -1.854004,4.009491c-0.585678,1.282715 -1.146385,2.522675 -1.692001,3.703491c-0.515884,1.116455 -1.466866,3.105255 -1.912163,3.95285c-0.404915,0.770721 -0.800842,1.466553 -1.198502,2.096985c-0.377251,0.598053 -0.770836,1.159546 -1.180504,1.701019c-0.415627,0.549347 -1.350327,1.68396 -1.869995,2.301666c-0.548271,0.651703 -1.121796,1.324646 -1.705498,2.015991c-0.58931,0.697998 -1.175011,1.394867 -1.741501,2.088013c-0.549431,0.672272 -1.538544,1.94104 -1.961502,2.524658c-0.392776,0.541962 -0.746811,1.061127 -1.100998,1.541992c-0.342033,0.464355 -0.692017,0.912354 -1.083,1.326019c-0.401031,0.424286 -1.379089,1.23288 -1.972672,1.61731c-0.63546,0.41156 -1.338615,0.796326 -2.090996,1.15802c-0.776993,0.373535 -1.591995,0.713196 -2.432999,1.013977c-0.844559,0.302032 -2.555542,0.779083 -3.405006,0.942688c-0.838913,0.16156 -1.684853,0.269714 -2.537994,0.34198c-0.865028,0.073273 -1.751854,0.107544 -2.664001,0.126007c-0.943893,0.019104 -2.952003,0.018005 -4.025665,0.018005c-1.115669,0 -2.265335,0 -3.441002,0c-1.193668,0 -2.397335,0 -3.603001,0c-1.199665,0 -3.549,0 -4.683998,0c-1.105003,0 -2.18,0 -3.225002,0c-1.014999,0 -2,0 -2.954998,0c-0.925003,0 -2.685013,0.003632 -3.520668,-0.00116c-0.809692,-0.004639 -1.598286,-0.015778 -2.367001,-0.073517c-0.756878,-0.056854 -1.506405,-0.153961 -2.241001,-0.3255c-0.743546,-0.173645 -2.234978,-0.743805 -2.977333,-1.15033c-0.773521,-0.423584 -1.533592,-0.934906 -2.282997,-1.501495c-0.765793,-0.578979 -1.507984,-1.212433 -2.229,-1.879486c-0.721802,-0.667755 -2.075415,-2.060974 -2.702168,-2.768677c-0.614504,-0.693878 -1.193558,-1.397217 -1.7355,-2.110504c-0.534353,-0.703278 -1.035074,-1.418976 -1.501501,-2.146484c-0.462915,-0.722015 -1.304049,-2.204651 -1.684832,-2.964844c-0.381975,-0.762573 -0.736902,-1.545197 -1.071001,-2.346008c-0.338718,-0.81189 -0.657038,-1.648376 -0.962999,-2.507996c-0.312864,-0.879028 -0.913671,-2.722565 -1.2085,-3.687988c-0.301281,-0.986572 -0.59333,-1.992279 -0.8685,-3.012024c-0.275858,-1.022278 -0.532787,-2.045959 -0.7605,-3.065979c-0.224167,-1.00412 -0.585083,-2.956146 -0.706501,-3.894501c-0.118252,-0.913879 -0.195038,-1.818359 -0.225,-2.719513c-0.030128,-0.906128 -0.013678,-1.828766 0.045,-2.773499c0.060833,-0.979462 0.304174,-3.072144 0.480001,-4.198334c0.183704,-1.176666 0.406578,-2.386536 0.674999,-3.613495c0.27146,-1.240875 0.581781,-2.475983 0.945,-3.685486c0.357166,-1.189331 1.190866,-3.417908 1.679501,-4.422516c0.468622,-0.96347 0.989803,-1.857208 1.543499,-2.687988c0.538019,-0.807251 1.114315,-1.559906 1.705502,-2.274017c0.581085,-0.701904 1.783716,-2.024597 2.386833,-2.667145c0.599577,-0.638763 1.205143,-1.267822 1.820999,-1.885529c0.616823,-0.618652 1.246677,-1.229584 1.893002,-1.831482c0.652328,-0.607513 2.014877,-1.809418 2.728832,-2.404327c0.724686,-0.603851 1.471733,-1.200775 2.239498,-1.78952c0.775894,-0.594971 1.570858,-1.180023 2.383503,-1.753479c0.818031,-0.577271 2.496731,-1.696472 3.355331,-2.235352c0.8601,-0.539825 1.731903,-1.062225 2.614502,-1.564484c0.881119,-0.501404 1.770885,-0.982025 2.668499,-1.438507c0.893127,-0.454193 2.69223,-1.293121 3.594666,-1.675507c0.891006,-0.377563 1.776237,-0.725586 2.647499,-1.049988c0.84716,-0.31543 1.67205,-0.603821 2.467503,-0.869995c0.757961,-0.253632 2.151722,-0.692596 2.778831,-0.880341c0.583622,-0.174744 1.133743,-0.332123 1.659,-0.471008c0.505466,-0.133667 1.001888,-0.25415 1.497002,-0.363007c0.499573,-0.109833 1.550694,-0.31073 2.115498,-0.409149c0.591179,-0.102997 1.207077,-0.203888 1.843498,-0.310516c0.654587,-0.10968 1.324471,-0.222748 2.005501,-0.346497c0.690979,-0.12558 2.087196,-0.406372 2.786835,-0.563995c0.703041,-0.158386 1.408241,-0.328827 2.121002,-0.4935c0.71991,-0.166321 1.449364,-0.330566 2.193001,-0.475494c0.755066,-0.147156 2.317993,-0.386047 3.128166,-0.466827c0.823257,-0.082092 1.658051,-0.134674 2.497498,-0.171021c0.838928,-0.036316 1.673294,-0.053589 2.497498,-0.062988c0.809135,-0.009216 2.362503,-0.009003 3.098671,-0.009003c0.713165,0 1.410332,0 2.098495,0c0.686172,0 1.377335,0 2.080505,0c0.722168,0 2.251495,0 3.069832,0c0.848335,0 1.716667,0 2.595001,0c0.878334,0 1.746666,0 2.595001,0c0.818329,0 2.324997,0 2.995995,0c0.617004,0 1.186005,0 1.713005,0c0.490997,0 0.951996,0 1.389,0c0.418999,0 1.226997,-0.000519 1.627327,0.000153c0.402336,0.000671 0.808701,0.002441 1.221001,0.010529c0.42038,0.00824 0.85083,0.022247 1.293007,0.046478c0.456512,0.024994 1.419388,0.106018 1.928329,0.164337c0.525757,0.060242 1.063057,0.133057 1.608002,0.214508c0.549736,0.082184 1.099037,0.172516 1.643997,0.268494c0.537712,0.094727 1.57225,0.294281 2.0625,0.395325c0.473747,0.097656 0.932762,0.196838 1.3815,0.28952c0.440269,0.090942 0.875381,0.178131 1.309502,0.253479c0.433914,0.075317 1.318039,0.195374 1.773499,0.235687c0.464592,0.041107 0.939873,0.067474 1.425003,0.08548c0.494888,0.018372 0.999985,0.026886 1.514999,0.031525c0.524986,0.00473 1.604996,0.004486 2.159996,0.004486c0.565002,0 1.139999,0 1.725006,0c0.595001,0 1.199997,0 1.815002,0c0.625,0 1.904999,0 2.559494,0c0.661499,0 1.326996,0 1.9935,0c0.664505,0 1.324005,0 1.975494,0c0.640503,0 1.876511,0.000549 2.466675,-0.000153c0.571167,-0.000671 1.124359,-0.002197 1.660492,-0.010529c0.520203,-0.008087 1.025528,-0.021454 1.51651,-0.046478c0.478378,-0.024384 1.400314,-0.103241 1.845322,-0.164825c0.441742,-0.061157 0.883331,-0.141357 1.327515,-0.246002c0.457672,-0.107819 0.928909,-0.243866 1.417496,-0.40802c0.518295,-0.174133 1.644424,-0.619507 2.260834,-0.888c0.650406,-0.283295 1.317825,-0.591553 1.994995,-0.911987c0.679504,-0.321533 1.347229,-0.646851 1.994995,-0.966003c0.618866,-0.304901 1.724899,-0.858215 2.196503,-1.093658c0.42041,-0.209869 0.798523,-0.398315 1.144501,-0.567017c0.32106,-0.156555 0.627365,-0.302704 0.928497,-0.440979c0.302887,-0.139069 0.955368,-0.42334 1.319336,-0.57785c0.386688,-0.164154 0.790604,-0.333527 1.201508,-0.514496c0.414795,-0.182678 0.825195,-0.369568 1.219498,-0.568512c0.380341,-0.191925 1.055008,-0.586639 1.329163,-0.795319c0.250885,-0.190948 0.463104,-0.39032 0.641998,-0.589508c0.166183,-0.185028 0.303894,-0.372894 0.42601,-0.553497c0.115097,-0.170227 0.315979,-0.491913 0.418167,-0.635986c0.099228,-0.139923 0.203598,-0.27359 0.310486,-0.406525c0.109421,-0.136108 0.225891,-0.275543 0.346512,-0.4245c0.128754,-0.158997 0.41066,-0.522644 0.564163,-0.732819c0.16391,-0.224426 0.331604,-0.462494 0.503998,-0.708008c0.174942,-0.249146 0.34877,-0.499054 0.522003,-0.743988c0.168121,-0.237732 0.484909,-0.672821 0.631165,-0.862671c0.135178,-0.175446 0.265244,-0.336609 0.385498,-0.492004c0.116074,-0.149963 0.228165,-0.299438 0.331497,-0.455994c0.106094,-0.160767 0.307404,-0.526642 0.404678,-0.737671c0.104294,-0.226257 0.204712,-0.471191 0.310486,-0.729004c0.110565,-0.269501 0.223495,-0.55011 0.346512,-0.837006c0.126266,-0.294495 0.406555,-0.892517 0.563995,-1.190826c0.158554,-0.300415 0.326889,-0.595734 0.4935,-0.889496c0.164398,-0.289886 0.326889,-0.57312 0.475494,-0.853516c0.143295,-0.270355 0.382751,-0.788269 0.46701,-1.035492c0.079437,-0.233032 0.13588,-0.459351 0.181488,-0.674988c0.043243,-0.204468 0.07457,-0.400269 0.109512,-0.585022c0.033142,-0.175262 0.112762,-0.497284 0.173157,-0.639648c0.057312,-0.135071 0.125961,-0.255371 0.20401,-0.354004c0.070038,-0.088531 0.144318,-0.159302 0.222,-0.191986c0.065598,-0.027588 0.194412,0.01889 0.230988,0.088806c0.046417,0.088745 0.065369,0.21521 0.075012,0.364502c0.011276,0.17453 0.003815,0.374939 -0.014999,0.598511c-0.020798,0.247223 -0.10173,0.806122 -0.160507,1.11734c-0.06488,0.343536 -0.150177,0.728333 -0.2565,1.165497c-0.122253,0.502625 -0.274017,1.079224 -0.454498,1.741486c-0.20723,0.760468 -0.731766,2.61499 -1.052826,3.726349c-0.353424,1.223389 -0.739212,2.538696 -1.158005,3.925507c-0.43573,1.442932 -0.892792,2.920563 -1.374008,4.411499c-0.481476,1.49173 -1.472656,4.387939 -1.981995,5.755157c-0.491013,1.318054 -0.99202,2.580658 -1.5,3.791992c-0.492294,1.17395 -0.99382,2.304169 -1.5,3.395996c-0.493973,1.065491 -1.496719,3.10968 -1.999664,4.098022c-0.494446,0.971649 -0.990341,1.920502 -1.479004,2.849976c-0.478699,0.910522 -0.950729,1.799286 -1.406998,2.670013c-0.445038,0.849304 -1.28479,2.488129 -1.671173,3.279999c-0.374832,0.768219 -0.727234,1.518677 -1.060501,2.25c-0.322968,0.70871 -0.627197,1.39917 -0.916489,2.070007c-0.279984,0.6492 -0.799622,1.889923 -1.044678,2.479828c-0.236282,0.568787 -0.462494,1.116425 -0.685501,1.639496c-0.213425,0.50058 -0.421234,0.976563 -0.631485,1.423492c-0.19931,0.423676 -0.598755,1.184021 -0.804169,1.515839c-0.192337,0.310699 -0.388535,0.590759 -0.57901,0.846008c-0.177063,0.237274 -0.349335,0.450653 -0.506989,0.64801l-0.143677,0.181335" fill="none" id="svg_12" stroke="#000000" stroke-dasharray="null" stroke-linecap="null" stroke-linejoin="null"/>
  <polygon cx="84.5" cy="107.5" fill="#007fff" id="svg_14" orient="point" point="5" points="529.5 164.554 545.24 209.836 593.169 210.813 554.968 239.775 568.85 285.661 529.5 258.278 490.15 285.661 504.032 239.775 465.831 210.813 513.76 209.836 529.5 164.554 545.24 209.836" r="66.946081" r2="26.778432" shape="star" stroke="#000000" stroke-width="2" strokeWidth="5" strokecolor="#000000"/>
  <polygon cx="82.5" cy="107.5" fill="#ffff00" id="svg_16" orient="point" point="5" points="527.5 202.71 534.269 222.183 554.881 222.603 538.453 235.059 544.423 254.792 527.5 243.016 510.577 254.792 516.547 235.059 500.119 222.603 520.731 222.183 527.5 202.71 534.269 222.183" r="28.790431" r2="11.516172" shape="star" stroke="#000000" stroke-width="2" strokeWidth="5" strokecolor="#000000"/>
  <polygon cx="194.5" cy="106.5" fill="none" id="svg_18" orient="point" point="5" r="0" r2="0" shape="star" strokeWidth="5" strokecolor="#000000"/>
  <polygon cx="213.5" cy="89.5" fill="none" id="svg_19" orient="point" point="5" r="0" r2="0" shape="star" strokeWidth="5" strokecolor="none"/>
  <path d="m216.5,128.5l100.000008,0l0,35l-100.000008,0l0,-35z" fill="#007fff" filter="url(#svg_2_blur)" id="svg_2" stroke="#000000" stroke-dasharray="null" stroke-linecap="null" stroke-linejoin="null" stroke-width="2"/>
 </g>
</svg>